<mxfile host="app.diagrams.net" modified="2024-04-05T17:35:47.520Z" agent="Mozilla/5.0 (Windows NT 10.0; Win64; x64) AppleWebKit/537.36 (KHTML, like Gecko) Chrome/123.0.0.0 Safari/537.36" etag="fKtOlXX8gaSiAHDY-8ZV" version="24.2.2" type="github">
  <diagram name="PÃ¡gina-1" id="-S5CpSMRucgXmBjjlvzp">
    <mxGraphModel dx="794" dy="1581" grid="1" gridSize="10" guides="1" tooltips="1" connect="1" arrows="1" fold="1" page="1" pageScale="1" pageWidth="827" pageHeight="1169" background="#ffffff" math="0" shadow="0">
      <root>
        <object label="" id="0">
          <mxCell />
        </object>
        <mxCell id="1" parent="0" />
        <mxCell id="XTc-jSpJmSybAGmCY5y3-61" value="Mindmap" style="swimlane;startSize=20;horizontal=1;containerType=tree;direction=east;" vertex="1" parent="1">
          <mxGeometry x="30" y="-20" width="830" height="820" as="geometry" />
        </mxCell>
        <mxCell id="XTc-jSpJmSybAGmCY5y3-132" value="Sub Topic 2" style="whiteSpace=wrap;html=1;rounded=1;arcSize=50;align=center;verticalAlign=middle;strokeWidth=1;autosize=1;spacing=4;treeFolding=1;treeMoving=1;newEdgeStyle={&quot;edgeStyle&quot;:&quot;entityRelationEdgeStyle&quot;,&quot;startArrow&quot;:&quot;none&quot;,&quot;endArrow&quot;:&quot;none&quot;,&quot;segment&quot;:10,&quot;curved&quot;:1,&quot;sourcePerimeterSpacing&quot;:0,&quot;targetPerimeterSpacing&quot;:0};" vertex="1" parent="XTc-jSpJmSybAGmCY5y3-61">
          <mxGeometry x="595" y="428" width="110" height="30" as="geometry" />
        </mxCell>
        <mxCell id="XTc-jSpJmSybAGmCY5y3-133" value="" style="edgeStyle=entityRelationEdgeStyle;startArrow=none;endArrow=none;segment=10;curved=1;sourcePerimeterSpacing=0;targetPerimeterSpacing=0;rounded=0;" edge="1" target="XTc-jSpJmSybAGmCY5y3-132" parent="XTc-jSpJmSybAGmCY5y3-61">
          <mxGeometry relative="1" as="geometry">
            <mxPoint x="570" y="470" as="sourcePoint" />
          </mxGeometry>
        </mxCell>
        <mxCell id="XTc-jSpJmSybAGmCY5y3-134" value="Sub Topic 3" style="whiteSpace=wrap;html=1;rounded=1;arcSize=50;align=center;verticalAlign=middle;strokeWidth=1;autosize=1;spacing=4;treeFolding=1;treeMoving=1;newEdgeStyle={&quot;edgeStyle&quot;:&quot;entityRelationEdgeStyle&quot;,&quot;startArrow&quot;:&quot;none&quot;,&quot;endArrow&quot;:&quot;none&quot;,&quot;segment&quot;:10,&quot;curved&quot;:1,&quot;sourcePerimeterSpacing&quot;:0,&quot;targetPerimeterSpacing&quot;:0};" vertex="1" parent="XTc-jSpJmSybAGmCY5y3-61">
          <mxGeometry x="585" y="548" width="110" height="30" as="geometry" />
        </mxCell>
        <mxCell id="XTc-jSpJmSybAGmCY5y3-139" value="Sub Topic1" style="whiteSpace=wrap;html=1;rounded=1;arcSize=50;align=center;verticalAlign=middle;strokeWidth=1;autosize=1;spacing=4;treeFolding=1;treeMoving=1;newEdgeStyle={&quot;edgeStyle&quot;:&quot;entityRelationEdgeStyle&quot;,&quot;startArrow&quot;:&quot;none&quot;,&quot;endArrow&quot;:&quot;none&quot;,&quot;segment&quot;:10,&quot;curved&quot;:1,&quot;sourcePerimeterSpacing&quot;:0,&quot;targetPerimeterSpacing&quot;:0};" vertex="1" parent="XTc-jSpJmSybAGmCY5y3-61">
          <mxGeometry x="360" y="348" width="100" height="30" as="geometry" />
        </mxCell>
        <mxCell id="XTc-jSpJmSybAGmCY5y3-131" value="Central Idea" style="ellipse;whiteSpace=wrap;html=1;align=center;newEdgeStyle={&quot;edgeStyle&quot;:&quot;entityRelationEdgeStyle&quot;,&quot;startArrow&quot;:&quot;none&quot;,&quot;endArrow&quot;:&quot;none&quot;,&quot;segment&quot;:10,&quot;curved&quot;:1,&quot;sourcePerimeterSpacing&quot;:0,&quot;targetPerimeterSpacing&quot;:0};treeFolding=1;treeMoving=1;" vertex="1" parent="1">
          <mxGeometry x="500" y="430" width="100" height="40" as="geometry" />
        </mxCell>
        <mxCell id="XTc-jSpJmSybAGmCY5y3-135" value="" style="edgeStyle=entityRelationEdgeStyle;startArrow=none;endArrow=none;segment=10;curved=1;sourcePerimeterSpacing=0;targetPerimeterSpacing=0;rounded=0;exitX=0.5;exitY=1;exitDx=0;exitDy=0;" edge="1" target="XTc-jSpJmSybAGmCY5y3-134" parent="1" source="XTc-jSpJmSybAGmCY5y3-131">
          <mxGeometry relative="1" as="geometry">
            <mxPoint x="590" y="570" as="sourcePoint" />
            <Array as="points">
              <mxPoint x="540" y="470" />
            </Array>
          </mxGeometry>
        </mxCell>
        <mxCell id="XTc-jSpJmSybAGmCY5y3-140" value="" style="edgeStyle=entityRelationEdgeStyle;startArrow=none;endArrow=none;segment=10;curved=1;sourcePerimeterSpacing=0;targetPerimeterSpacing=0;rounded=0;" edge="1" target="XTc-jSpJmSybAGmCY5y3-139" parent="1" source="XTc-jSpJmSybAGmCY5y3-131">
          <mxGeometry relative="1" as="geometry">
            <mxPoint x="360" y="370" as="sourcePoint" />
          </mxGeometry>
        </mxCell>
      </root>
    </mxGraphModel>
  </diagram>
</mxfile>
